<?xml version="1.0" encoding="UTF-8"?>
<svg xmlns="http://www.w3.org/2000/svg" version="1.1" viewBox="0 0 159.84 150">
  <defs>
    <style>
      .cls-1 {
        fill: #7c3aed;
      }

      .cls-2 {
        fill: #ff1fd6;
      }
    </style>
  </defs>
  <!-- Generator: Adobe Illustrator 28.6.0, SVG Export Plug-In . SVG Version: 1.2.0 Build 709)  -->
  <g>
    <g id="Layer_43">
      <g id="Layer_37">
        <g>
          <path class="cls-1" d="M128.82,39.41s20.32-1.48,22.16,13.83c0,0,.11.87-.92.81s-9.79-2.54-11.36-2.16c0,0-5.35-.7-6.44-.54,0,0-6.76-1.41-7.19-3.79,0,0-2.54-3.79.16-5.9,0,0,2.58-2.24,3.59-2.25Z"/>
          <path class="cls-2" d="M103.55,27.61s-7.46,21.31,10.17,19.85c0,0,6.17,1.03,13.2-7.84,0,0,3.03-3.52,4.98-.76,0,0,7.36,1.35,10.82,2.54,0,0,2.42-2.13,2.49-6.45,0,0,.22-6.45-.58-6.92l-12.01-.11-29.06-.31Z"/>
          <polyline points="104.38 37.35 105.17 39.27 124.8 39.43 126.07 37.67 104.01 37.35"/>
          <polygon points="135.64 37.3 136.61 38.76 142.56 38.92 143.21 37.41 135.64 37.3"/>
          <polygon points="106.27 41.84 107.73 43.9 119.68 44.03 121.79 42.01 106.27 41.84"/>
          <polygon points="104.05 29.51 103.78 31.46 143.91 31.62 144 29.75 104.05 29.51"/>
          <polygon points="103.94 33.51 104.17 35.29 143.44 35.62 143.86 33.73 103.94 33.51"/>
          <polygon points="42.89 98.58 45.78 98.62 50.65 97.97 48.92 94.04 44.95 94.87 42.89 98.58"/>
          <path d="M41.81,98c.21-.69,7.72-4.9-5.99,5.19-5.24,4.75-27.9,23.88-18.32,22.86,4.77-.08,19.11-10.02,25.31-13.63,0,0-14.14,5.26-15.58,9.41-2.25,6.5,15.39-1.9,23.69-7.77,2.7-1.91-5.45-1.27-9.7,5.57-5.54,8.92,89.09-22.33,73.37-42.57"/>
          <path d="M58.94,120.54c-1.87,4.76,72.71-23.49,55.8-43.9,0,0,22.18-16.35-7.85-17.92-1.25-1.43-17.91-9.48-42.29,14.03-.92.88-9.27,9.24-12.12,11.25-18.45,13.05-18.8,22.97-5.01,12.51"/>
          <path d="M74.84,67.85s.18-2.38,1.7-4.06,5.83-5.48,8.11-7.77c1.68-1.68,5.71-5.8,8.51-9.23.62-.76.82-1.32.83-1.1.03.73-3.18,1.15-2.31-.55,3.05-5.99,10.25-15.13,10.75-16.24.97-2.15,6.76-7,15.94-6.66,2.85.11,2.7,4.41-.15,4.39-5.26-.04-10.75.52-12.98.5-.87,0-1.41-.11-1.76.69-.48,1.07-.93,2.93-.67,6.01.49,5.84,1.35,16.55,14.17,12.87,0,0,3.05-.05,7.07-4.25.05-.05.09-.09.13-.14.62-.76,6.19-7.49,7.62-3.66,0,0-11.9,3.25-4.71,9.79.64.32.54,1.61,6.93,2.88.95.19,1.01.71,1.12,1.68.17,1.66.05,5.1.43,9.52.18,2.09.52,4.91.29,8.22-.27,3.95-2.38,11.21-3.75,14.71-3.77,9.64-7.24,15.37-12.37,19.94-8.07,7.19-11.87,6.97-16.01,8.87-.87.4-1.91.72-3.03.97-.5.11-2.02.54-2.7.65l-2.34.04c-.21.02-.33.06-.55.04-2.05-.26-3.92-.74-5.9-.58h-1.2c-1.73.14-3.46-.12-5.06-.78l-4.81-1.64"/>
          <path d="M134.75,51.44c.6-.27,1.3-.2,1.95-.1.68.1,1.36.23,2.04.39.33.08,1.69.27,2,.39"/>
          <path d="M103.83,27.51s12.98-13.09,29.86.43"/>
          <path class="cls-1" d="M75.37,63.99c2.19-1.3,18.97-10.86,23.79-3.45,0,0,28.38-2.44,9.49,16.97,0,0,8.86,15.41-28.58,36.68,1.95.66,46.5-22.57,32.58-36.61,0,0,19.8-21.07-12.95-19.77,0,0-7.72-9.37-24.33,6.12-.02.02-.04.07-.01.05Z"/>
          <path d="M135.04,27.94l9.41.05c.79.18,1.41,10.99-1.73,13.36,0,0,4.11-1.84,3.03-13.47"/>
          <path d="M123.84,27.75l-20.44-.19c1.08-1.2,10.89-4.09,20.44.19Z"/>
          <path d="M103.45,27.85s-.54,1.32-.5,2.29c0,0-.78-1.46.5-2.29Z"/>
          <path class="cls-1" d="M133.33,66.2c1.18.98-4.03,37.67-27.4,44.06,4.22-2.38,19.64-11.96,27.4-44.06Z"/>
          <path d="M100.34,88.62c-.04.39,0,.79.03,1.18,0,.04,0,.09-.03.13-.02.02-.06.03-.09.04-.16.02-.32-.06-.44-.17-.24-.22-.38-.54-.37-.87s.16-.64.41-.84c.1-.09.22-.15.34-.22.12-.07.4-.29.53-.26-.2.3-.39.64-.39,1.01Z"/>
          <path d="M91.78,71.2c.19.06.39.1.56.21.04.02.08.05.1.1.05.11-.06.23-.16.29-.39.23-.87.21-1.33.19-.15,0-.31-.02-.44-.09-.09-.05-.16-.13-.22-.21-.14-.21-.19-.47-.18-.73,0-.14.01-.28.04-.41.04-.18.03-.22.18-.15.24.11.45.35.68.48s.5.25.77.33Z"/>
          <path d="M87.07,112.86s.47,5.97,2.73,7.62c2.13,1.56,11.26,3.09,8.95,1.25-2.06-1.65-2.38-6.06-.11-9.41"/>
          <path d="M99.29,113.51s2.66,6.11,4.83,6.5c2.04.37,6.42,1.7,6.07-.63-.17-1.17-3.34-7.26-2.96-9.24"/>
          <path d="M90.73,120.23l8.18,11.24c-.28,1.93-1.99-1.03-4.76,1.43-.27.24-.54.7.74.87,2.39,0-.95.09,5.71-.09.5-.01,1.29-.46,1.81-.55.92.13,1.44.25,2.26.38,6.22.98,7.88.61,10.14.52.93-.04.49-.17.96-.09,1.09.12.79-2.3-.81-1.92-3.51.84-5.13,1.15-10.37-.15.1.27,4.08,1.24,7.54,1.14.54-.01,1.49-.03,1.85-.11.91-.2-.11-2.14-1.4-1.87-2.72.56-3.07.54-3.97.5-3.63-.18-3.73.58-6.58-1.66l-8.99-11.88"/>
          <path d="M103.43,116.79l4.67,9.81c.3,2.43-4.19-.42-7.4,1.69-.3.2.5.59.74.93,1.62.03-.67-.02,8.27-.36.5-.02,1.31-.42,1.82-.5.91.16,1.4.64,2.23.75,5.94.81,4.58.61,6.9.67.93.03,3.06-.29,3.53-.19,1.08.15,1.17-2.38-.43-2.05-3.54.74-4.8,1.06-10-.39.09.27,4.04,1.35,7.5,1.36.54,0,.59.09.95.02.91-.17.68-1.9-.62-1.67-2.73.48-2.91.15-3.8.08-3.62-.28-4.04.98-6.83-1.35l-4.21-8.63"/>
          <path d="M124.43,127.81s2.75-.79,3.31,1.5c.01.17-2.04-1.03-3.03-.55"/>
          <path d="M115.45,132.16s2.75-.79,3.31,1.5c.01.17-2.04-1.03-3.03-.55"/>
          <path d="M94.75,133.31c-.24-.29-1.99-.27-3.12.69-1.15-.16.99-2.63,3.29-1.27.59.35-.54.6-.17.58Z"/>
          <path d="M134.73,51.89s14.14,1.27,17.06,3.51c0,0,.35,0,.39-.37s-.22-1.95-.22-1.95l-.85-2.77c-.17-.54-.45-1.02-.69-1.53-.56-1.19-1.93-3.11-2.29-3.34.02.14-3.86-3.29-5.21-4,0,0-5.73-2.52-8.4-2.45,0,0-3.89-.47-4.36-.54l-1.23.97-.25.4s2.74-.61,6.09.22c0,0,4.71.72,7.04,2.1.06.03,1.63.95,1.68.99,2.27,1.44,1.26.52,3.39,2.65,0,0,1.91,1.95,2.88,4.22,0,0,.94,1.91,1.08,3.14,0,0,.65,1.3-1.3.29,0,0-6.96-1.98-8.08-2.02,0,0-6.6-.69-7.18-.54,0,0-2.38-.07-2.67-.04s2.27,1.19,3.1,1.08Z"/>
          <path d="M146.66,45.46c.03-.39-.26-.73-.52-1.01-.2-.22-.39-.43-.59-.65-.06-.06-.11-.12-.18-.17-.18-.12-.43-.11-.61,0s-.07.17.06.27.25.2.37.31c.5.41.99.83,1.47,1.25Z"/>
          <path d="M150.15,53.53c-.25-.03-.52-.09-.76-.18.09.03.14.24.2.31.07.08.17.13.27.17.29.11.59.19.89.23.09.01.21.01.26-.06.03-.04,0-.1.03-.14.09-.19-.22-1.07-.19-.83.01.08-.17.32-.31.41-.08.05-.24.1-.39.09Z"/>
          <path d="M151.8,55.4c-.47-.12-.83-.5-1.28-.68.09-.1.23-.15.36-.14.1,0,.21.04.3.08.16.07.31.15.43.27s.21.28.21.45c0,.01,0,.03-.02.03Z"/>
          <path d="M147.57,44.84c.3.27.61.56.77.93-.4-.03-.75-.29-1.06-.54-1.1-.87-2.19-1.73-3.29-2.6-.24-.19-.87-.63-.77-.98.35.01.84.4,1.14.59.39.25.77.51,1.13.8.73.56,1.41,1.18,2.08,1.8Z"/>
          <path d="M123.95,45.41c.62,0,.62-.97,0-.97s-.62.97,0,.97h0Z"/>
          <path d="M123.93,46.61c9.74-1.22,18.88,3.09,27.34,7.37.55.28,1.04-.55.49-.84-8.6-4.34-17.93-8.74-27.83-7.5-.61.08-.62,1.04,0,.97h0Z"/>
        </g>
      </g>
    </g>
  </g>
</svg>